<svg width="25" height="25" viewBox="0 0 25 25" fill="none" xmlns="http://www.w3.org/2000/svg">
    <path
        d="M12.5 0C5.60526 0 0 5.60526 0 12.5C0 19.3947 5.60526 25 12.5 25C19.3947 25 25 19.3947 25 12.5C25 5.60526 19.3947 0 12.5 0ZM12.5 22.2895C7.10526 22.2895 2.71053 17.8947 2.71053 12.5C2.71053 7.10526 7.10526 2.71053 12.5 2.71053C17.8947 2.71053 22.2895 7.10526 22.2895 12.5C22.2895 17.8947 17.8947 22.2895 12.5 22.2895Z"
        fill="#D62317" />
    <path
        d="M17.9474 8.63158L16.3684 7.05263C16.1316 6.81579 15.7895 6.81579 15.5526 7.05263L12.5 10.1053L9.44737 7.05263C9.21053 6.81579 8.86842 6.81579 8.63158 7.05263L7.05263 8.63158C6.81579 8.86842 6.81579 9.21053 7.05263 9.44737L10.1053 12.5L7.05263 15.5526C6.81579 15.7895 6.81579 16.1316 7.05263 16.3684L8.63158 17.9474C8.86842 18.1842 9.21053 18.1842 9.44737 17.9474L12.5 14.8947L15.5526 17.9474C15.7895 18.1842 16.1316 18.1842 16.3684 17.9474L17.9474 16.3684C18.1842 16.1316 18.1842 15.7895 17.9474 15.5526L14.8947 12.5L17.9474 9.44737C18.1842 9.21053 18.1842 8.84211 17.9474 8.63158Z"
        fill="#D62317" />
</svg>
    