<svg width="68" height="65" viewBox="0 0 68 65" fill="none" xmlns="http://www.w3.org/2000/svg">
    <path
        d="M57.8 10.2632H36.38L35.36 7.18421C34 2.73684 30.26 0 25.84 0H10.2C4.42 0 0 4.44737 0 10.2632V54.7368C0 60.5526 4.42 65 10.2 65H57.8C63.58 65 68 60.5526 68 54.7368V20.5263C68 14.7105 63.58 10.2632 57.8 10.2632ZM40.8 41.0526H37.4V44.4737C37.4 46.5263 36.04 47.8947 34 47.8947C31.96 47.8947 30.6 46.5263 30.6 44.4737V41.0526H27.2C25.16 41.0526 23.8 39.6842 23.8 37.6316C23.8 35.5789 25.16 34.2105 27.2 34.2105H30.6V30.7895C30.6 28.7368 31.96 27.3684 34 27.3684C36.04 27.3684 37.4 28.7368 37.4 30.7895V34.2105H40.8C42.84 34.2105 44.2 35.5789 44.2 37.6316C44.2 39.6842 42.84 41.0526 40.8 41.0526Z"
        fill="#1057FF" />
</svg>
    