<svg width="25" height="25" viewBox="0 0 25 25" fill="none" xmlns="http://www.w3.org/2000/svg">
    <path fill-rule="evenodd" clip-rule="evenodd"
        d="M12.5055 0C5.61729 0 9.09989e-06 5.60843 0 12.4967C-1.69614e-05 19.385 5.61727 25 12.5055 25C19.3938 25 25 19.385 25 12.4967C25 5.60843 19.3938 0 12.5055 0ZM17.5956 7.95021C17.8232 7.94535 18.0469 8.00893 18.2379 8.13272C18.4289 8.2565 18.5783 8.43479 18.6667 8.64448C18.7552 8.85416 18.7787 9.08559 18.7341 9.30876C18.6895 9.53193 18.5789 9.73657 18.4166 9.89616L11.598 16.7147C11.3852 16.9264 11.0972 17.0451 10.797 17.0451C10.4969 17.0451 10.2089 16.9264 9.99601 16.7147L6.58338 13.3088C6.47761 13.203 6.39371 13.0774 6.33646 12.9392C6.27922 12.801 6.24976 12.6529 6.24976 12.5033C6.24976 12.2012 6.36977 11.9115 6.58338 11.6979C6.797 11.4843 7.08673 11.3643 7.38883 11.3643C7.69094 11.3643 7.98067 11.4843 8.19428 11.6979L10.7926 14.3073L16.8057 8.29413C17.0137 8.08024 17.2974 7.9567 17.5956 7.95021Z"
        fill="#65A316" />
</svg>
    