<svg width="25" height="25" viewBox="0 0 25 25" fill="none" xmlns="http://www.w3.org/2000/svg">
    <path
        d="M10.3017 1.69387C9.91117 1.30637 9.91117 0.678118 10.3017 0.290622C10.6922 -0.096874 11.3254 -0.096874 11.7159 0.290622L15.2514 3.79874C15.642 4.18624 15.642 4.81449 15.2514 5.20199C14.8609 5.58948 14.2277 5.58948 13.8372 5.20199L10.3017 1.69387ZM17.9124 2.65486C17.8642 2.10894 18.2712 1.62767 18.8214 1.57991C19.3716 1.53215 19.8566 1.93598 19.9048 2.4819L20.3405 7.42425C20.3887 7.97017 19.9817 8.45144 19.4315 8.4992C18.8813 8.54696 18.3963 8.14313 18.3482 7.59721L17.9124 2.65486ZM23.12 8.24514C23.4367 7.79624 24.0603 7.68715 24.5127 8.00147C24.9651 8.31579 25.075 8.9345 24.7583 9.3834L21.8904 13.4474C21.5736 13.8963 20.9501 14.0054 20.4977 13.6911C20.0452 13.3767 19.9353 12.758 20.2521 12.3091L23.12 8.24514ZM23.4878 15.849C24.0212 15.7071 24.5696 16.0212 24.7125 16.5506C24.8554 17.0799 24.5389 17.624 24.0054 17.7658L19.1758 19.0499C18.6423 19.1917 18.094 18.8776 17.951 18.3483C17.8081 17.8189 18.1247 17.2748 18.6581 17.133L23.4878 15.849ZM18.8437 21.9084C19.3442 22.14 19.5608 22.7304 19.3274 23.227C19.0939 23.7237 18.499 23.9385 17.9984 23.7069L13.4669 21.6102C12.9663 21.3786 12.7498 20.7883 12.9832 20.2916C13.2166 19.795 13.8116 19.5801 14.3121 19.8117L18.8437 21.9084ZM11.3607 23.5882C11.5941 24.0848 11.3776 24.6752 10.877 24.9068C10.3765 25.1384 9.7815 24.9235 9.5481 24.4269L7.43501 19.9305C7.2016 19.4338 7.41815 18.8434 7.91869 18.6118C8.41923 18.3802 9.01421 18.5951 9.24762 19.0918L11.3607 23.5882ZM4.54026 20.1023C4.39732 20.6316 3.84898 20.9458 3.31551 20.8039C2.78205 20.6621 2.46546 20.118 2.60841 19.5887L3.9025 14.7965C4.04544 14.2672 4.59378 13.9531 5.12724 14.0949C5.66071 14.2367 5.97729 14.7808 5.83435 15.3101L4.54026 20.1023ZM1.57366 13.0819C1.12126 13.3962 0.497711 13.2871 0.180934 12.8382C-0.135844 12.3893 -0.025896 11.7706 0.426509 11.4563L4.52227 8.61065C4.97467 8.29632 5.59822 8.40542 5.915 8.85432C6.23178 9.30321 6.12183 9.92192 5.66942 10.2362L1.57366 13.0819ZM3.84903 5.81182C3.29885 5.76406 2.89186 5.28279 2.93999 4.73687C2.98813 4.19096 3.47316 3.78712 4.02334 3.83488L9.00432 4.26728C9.5545 4.31505 9.96149 4.79632 9.91335 5.34223C9.86522 5.88815 9.38019 6.29199 8.83 6.24422L3.84903 5.81182Z"
        fill="#DCDCE1" />
</svg>
    